<?xml version="1.0" encoding="utf-8" standalone="no"?>
<!DOCTYPE svg PUBLIC "-//W3C//DTD SVG 1.1//EN"
  "http://www.w3.org/Graphics/SVG/1.1/DTD/svg11.dtd">
<!-- Created with matplotlib (https://matplotlib.org/) -->
<svg height="144pt" version="1.1" viewBox="0 0 144 144" width="144pt" xmlns="http://www.w3.org/2000/svg" xmlns:xlink="http://www.w3.org/1999/xlink">
 <defs>
  <style type="text/css">
*{stroke-linecap:butt;stroke-linejoin:round;}
  </style>
 </defs>
 <g id="figure_1">
  <g id="patch_1">
   <path d="M 0 144 
L 144 144 
L 144 0 
L 0 0 
z
" style="fill:none;"/>
  </g>
  <g id="axes_1">
   <g id="patch_2">
    <path d="M 18.36 128.16 
L 129.24 128.16 
L 129.24 17.28 
L 18.36 17.28 
z
" style="fill:none;"/>
   </g>
   <g id="QuadMesh_1">
    <path clip-path="url(#p33dbaf47bf)" d="M 18.36 17.28 
L 46.08 17.28 
L 46.08 45 
L 18.36 45 
L 18.36 17.28 
" style="fill:#d2e3f3;stroke:#000000;stroke-width:0.5;"/>
    <path clip-path="url(#p33dbaf47bf)" d="M 46.08 17.28 
L 73.8 17.28 
L 73.8 45 
L 46.08 45 
L 46.08 17.28 
" style="fill:#89bedc;stroke:#000000;stroke-width:0.5;"/>
    <path clip-path="url(#p33dbaf47bf)" d="M 73.8 17.28 
L 101.52 17.28 
L 101.52 45 
L 73.8 45 
L 73.8 17.28 
" style="fill:#dbe9f6;stroke:#000000;stroke-width:0.5;"/>
    <path clip-path="url(#p33dbaf47bf)" d="M 101.52 17.28 
L 129.24 17.28 
L 129.24 45 
L 101.52 45 
L 101.52 17.28 
" style="fill:#eef5fc;stroke:#000000;stroke-width:0.5;"/>
    <path clip-path="url(#p33dbaf47bf)" d="M 18.36 45 
L 46.08 45 
L 46.08 72.72 
L 18.36 72.72 
L 18.36 45 
" style="fill:#89bedc;stroke:#000000;stroke-width:0.5;"/>
    <path clip-path="url(#p33dbaf47bf)" d="M 46.08 45 
L 73.8 45 
L 73.8 72.72 
L 46.08 72.72 
L 46.08 45 
" style="fill:#08306b;stroke:#000000;stroke-width:0.5;"/>
    <path clip-path="url(#p33dbaf47bf)" d="M 73.8 45 
L 101.52 45 
L 101.52 72.72 
L 73.8 72.72 
L 73.8 45 
" style="fill:#d2e3f3;stroke:#000000;stroke-width:0.5;"/>
    <path clip-path="url(#p33dbaf47bf)" d="M 101.52 45 
L 129.24 45 
L 129.24 72.72 
L 101.52 72.72 
L 101.52 45 
" style="fill:#e4eff9;stroke:#000000;stroke-width:0.5;"/>
    <path clip-path="url(#p33dbaf47bf)" d="M 18.36 72.72 
L 46.08 72.72 
L 46.08 100.44 
L 18.36 100.44 
L 18.36 72.72 
" style="fill:#dbe9f6;stroke:#000000;stroke-width:0.5;"/>
    <path clip-path="url(#p33dbaf47bf)" d="M 46.08 72.72 
L 73.8 72.72 
L 73.8 100.44 
L 46.08 100.44 
L 46.08 72.72 
" style="fill:#d2e3f3;stroke:#000000;stroke-width:0.5;"/>
    <path clip-path="url(#p33dbaf47bf)" d="M 73.8 72.72 
L 101.52 72.72 
L 101.52 100.44 
L 73.8 100.44 
L 73.8 72.72 
" style="fill:#d2e3f3;stroke:#000000;stroke-width:0.5;"/>
    <path clip-path="url(#p33dbaf47bf)" d="M 101.52 72.72 
L 129.24 72.72 
L 129.24 100.44 
L 101.52 100.44 
L 101.52 72.72 
" style="fill:#eef5fc;stroke:#000000;stroke-width:0.5;"/>
    <path clip-path="url(#p33dbaf47bf)" d="M 18.36 100.44 
L 46.08 100.44 
L 46.08 128.16 
L 18.36 128.16 
L 18.36 100.44 
" style="fill:#eef5fc;stroke:#000000;stroke-width:0.5;"/>
    <path clip-path="url(#p33dbaf47bf)" d="M 46.08 100.44 
L 73.8 100.44 
L 73.8 128.16 
L 46.08 128.16 
L 46.08 100.44 
" style="fill:#e4eff9;stroke:#000000;stroke-width:0.5;"/>
    <path clip-path="url(#p33dbaf47bf)" d="M 73.8 100.44 
L 101.52 100.44 
L 101.52 128.16 
L 73.8 128.16 
L 73.8 100.44 
" style="fill:#eef5fc;stroke:#000000;stroke-width:0.5;"/>
    <path clip-path="url(#p33dbaf47bf)" d="M 101.52 100.44 
L 129.24 100.44 
L 129.24 128.16 
L 101.52 128.16 
L 101.52 100.44 
" style="fill:#f7fbff;stroke:#000000;stroke-width:0.5;"/>
   </g>
   <g id="matplotlib.axis_1">
    <g id="xtick_1">
     <g id="line2d_1">
      <defs>
       <path d="M 0 0 
L 0 3.5 
" id="m1f1622a5e3" style="stroke:#000000;stroke-width:0.8;"/>
      </defs>
      <g>
       <use style="stroke:#000000;stroke-width:0.8;" x="32.22" xlink:href="#m1f1622a5e3" y="128.16"/>
      </g>
     </g>
     <g id="text_1">
      <!-- P -->
      <defs>
       <path d="M 19.671875 64.796875 
L 19.671875 37.40625 
L 32.078125 37.40625 
Q 38.96875 37.40625 42.71875 40.96875 
Q 46.484375 44.53125 46.484375 51.125 
Q 46.484375 57.671875 42.71875 61.234375 
Q 38.96875 64.796875 32.078125 64.796875 
z
M 9.8125 72.90625 
L 32.078125 72.90625 
Q 44.34375 72.90625 50.609375 67.359375 
Q 56.890625 61.8125 56.890625 51.125 
Q 56.890625 40.328125 50.609375 34.8125 
Q 44.34375 29.296875 32.078125 29.296875 
L 19.671875 29.296875 
L 19.671875 0 
L 9.8125 0 
z
" id="DejaVuSans-80"/>
      </defs>
      <g transform="translate(23.618709 149.614809)rotate(-45)scale(0.15 -0.15)">
       <use xlink:href="#DejaVuSans-80"/>
      </g>
     </g>
    </g>
    <g id="xtick_2">
     <g id="line2d_2">
      <g>
       <use style="stroke:#000000;stroke-width:0.8;" x="59.94" xlink:href="#m1f1622a5e3" y="128.16"/>
      </g>
     </g>
     <g id="text_2">
      <!-- NP -->
      <defs>
       <path d="M 9.8125 72.90625 
L 23.09375 72.90625 
L 55.421875 11.921875 
L 55.421875 72.90625 
L 64.984375 72.90625 
L 64.984375 0 
L 51.703125 0 
L 19.390625 60.984375 
L 19.390625 0 
L 9.8125 0 
z
" id="DejaVuSans-78"/>
      </defs>
      <g transform="translate(43.403645 157.549873)rotate(-45)scale(0.15 -0.15)">
       <use xlink:href="#DejaVuSans-78"/>
       <use x="74.804688" xlink:href="#DejaVuSans-80"/>
      </g>
     </g>
    </g>
    <g id="xtick_3">
     <g id="line2d_3">
      <g>
       <use style="stroke:#000000;stroke-width:0.8;" x="87.66" xlink:href="#m1f1622a5e3" y="128.16"/>
      </g>
     </g>
     <g id="text_3">
      <!-- B -->
      <defs>
       <path d="M 19.671875 34.8125 
L 19.671875 8.109375 
L 35.5 8.109375 
Q 43.453125 8.109375 47.28125 11.40625 
Q 51.125 14.703125 51.125 21.484375 
Q 51.125 28.328125 47.28125 31.5625 
Q 43.453125 34.8125 35.5 34.8125 
z
M 19.671875 64.796875 
L 19.671875 42.828125 
L 34.28125 42.828125 
Q 41.5 42.828125 45.03125 45.53125 
Q 48.578125 48.25 48.578125 53.8125 
Q 48.578125 59.328125 45.03125 62.0625 
Q 41.5 64.796875 34.28125 64.796875 
z
M 9.8125 72.90625 
L 35.015625 72.90625 
Q 46.296875 72.90625 52.390625 68.21875 
Q 58.5 63.53125 58.5 54.890625 
Q 58.5 48.1875 55.375 44.234375 
Q 52.25 40.28125 46.1875 39.3125 
Q 53.46875 37.75 57.5 32.78125 
Q 61.53125 27.828125 61.53125 20.40625 
Q 61.53125 10.640625 54.890625 5.3125 
Q 48.25 0 35.984375 0 
L 9.8125 0 
z
" id="DejaVuSans-66"/>
      </defs>
      <g transform="translate(78.177035 150.496483)rotate(-45)scale(0.15 -0.15)">
       <use xlink:href="#DejaVuSans-66"/>
      </g>
     </g>
    </g>
    <g id="xtick_4">
     <g id="line2d_4">
      <g>
       <use style="stroke:#000000;stroke-width:0.8;" x="115.38" xlink:href="#m1f1622a5e3" y="128.16"/>
      </g>
     </g>
     <g id="text_4">
      <!-- A -->
      <defs>
       <path d="M 34.1875 63.1875 
L 20.796875 26.90625 
L 47.609375 26.90625 
z
M 28.609375 72.90625 
L 39.796875 72.90625 
L 67.578125 0 
L 57.328125 0 
L 50.6875 18.703125 
L 17.828125 18.703125 
L 11.1875 0 
L 0.78125 0 
z
" id="DejaVuSans-65"/>
      </defs>
      <g transform="translate(105.91858 150.474939)rotate(-45)scale(0.15 -0.15)">
       <use xlink:href="#DejaVuSans-65"/>
      </g>
     </g>
    </g>
   </g>
   <g id="matplotlib.axis_2">
    <g id="ytick_1">
     <g id="line2d_5">
      <defs>
       <path d="M 0 0 
L -3.5 0 
" id="m9dd5d06a80" style="stroke:#000000;stroke-width:0.8;"/>
      </defs>
      <g>
       <use style="stroke:#000000;stroke-width:0.8;" x="18.36" xlink:href="#m9dd5d06a80" y="31.14"/>
      </g>
     </g>
     <g id="text_5">
      <!-- P -->
      <g transform="translate(2.758709 39.895981)rotate(-45)scale(0.15 -0.15)">
       <use xlink:href="#DejaVuSans-80"/>
      </g>
     </g>
    </g>
    <g id="ytick_2">
     <g id="line2d_6">
      <g>
       <use style="stroke:#000000;stroke-width:0.8;" x="18.36" xlink:href="#m9dd5d06a80" y="58.86"/>
      </g>
     </g>
     <g id="text_6">
      <!-- NP -->
      <g transform="translate(-5.176355 75.551045)rotate(-45)scale(0.15 -0.15)">
       <use xlink:href="#DejaVuSans-78"/>
       <use x="74.804688" xlink:href="#DejaVuSans-80"/>
      </g>
     </g>
    </g>
    <g id="ytick_3">
     <g id="line2d_7">
      <g>
       <use style="stroke:#000000;stroke-width:0.8;" x="18.36" xlink:href="#m9dd5d06a80" y="86.58"/>
      </g>
     </g>
     <g id="text_7">
      <!-- B -->
      <g transform="translate(1.877035 96.217655)rotate(-45)scale(0.15 -0.15)">
       <use xlink:href="#DejaVuSans-66"/>
      </g>
     </g>
    </g>
    <g id="ytick_4">
     <g id="line2d_8">
      <g>
       <use style="stroke:#000000;stroke-width:0.8;" x="18.36" xlink:href="#m9dd5d06a80" y="114.3"/>
      </g>
     </g>
     <g id="text_8">
      <!-- A -->
      <g transform="translate(1.89858 123.91611)rotate(-45)scale(0.15 -0.15)">
       <use xlink:href="#DejaVuSans-65"/>
      </g>
     </g>
    </g>
   </g>
   <g id="text_9">
    <!-- 8 -->
    <defs>
     <path d="M 31.78125 34.625 
Q 24.75 34.625 20.71875 30.859375 
Q 16.703125 27.09375 16.703125 20.515625 
Q 16.703125 13.921875 20.71875 10.15625 
Q 24.75 6.390625 31.78125 6.390625 
Q 38.8125 6.390625 42.859375 10.171875 
Q 46.921875 13.96875 46.921875 20.515625 
Q 46.921875 27.09375 42.890625 30.859375 
Q 38.875 34.625 31.78125 34.625 
z
M 21.921875 38.8125 
Q 15.578125 40.375 12.03125 44.71875 
Q 8.5 49.078125 8.5 55.328125 
Q 8.5 64.0625 14.71875 69.140625 
Q 20.953125 74.21875 31.78125 74.21875 
Q 42.671875 74.21875 48.875 69.140625 
Q 55.078125 64.0625 55.078125 55.328125 
Q 55.078125 49.078125 51.53125 44.71875 
Q 48 40.375 41.703125 38.8125 
Q 48.828125 37.15625 52.796875 32.3125 
Q 56.78125 27.484375 56.78125 20.515625 
Q 56.78125 9.90625 50.3125 4.234375 
Q 43.84375 -1.421875 31.78125 -1.421875 
Q 19.734375 -1.421875 13.25 4.234375 
Q 6.78125 9.90625 6.78125 20.515625 
Q 6.78125 27.484375 10.78125 32.3125 
Q 14.796875 37.15625 21.921875 38.8125 
z
M 18.3125 54.390625 
Q 18.3125 48.734375 21.84375 45.5625 
Q 25.390625 42.390625 31.78125 42.390625 
Q 38.140625 42.390625 41.71875 45.5625 
Q 45.3125 48.734375 45.3125 54.390625 
Q 45.3125 60.0625 41.71875 63.234375 
Q 38.140625 66.40625 31.78125 66.40625 
Q 25.390625 66.40625 21.84375 63.234375 
Q 18.3125 60.0625 18.3125 54.390625 
z
" id="DejaVuSans-56"/>
    </defs>
    <g style="fill:#262626;" transform="translate(27.448125 35.279062)scale(0.15 -0.15)">
     <use xlink:href="#DejaVuSans-56"/>
    </g>
   </g>
   <g id="text_10">
    <!-- 18 -->
    <defs>
     <path d="M 12.40625 8.296875 
L 28.515625 8.296875 
L 28.515625 63.921875 
L 10.984375 60.40625 
L 10.984375 69.390625 
L 28.421875 72.90625 
L 38.28125 72.90625 
L 38.28125 8.296875 
L 54.390625 8.296875 
L 54.390625 0 
L 12.40625 0 
z
" id="DejaVuSans-49"/>
    </defs>
    <g style="fill:#262626;" transform="translate(50.39625 35.279062)scale(0.15 -0.15)">
     <use xlink:href="#DejaVuSans-49"/>
     <use x="63.623047" xlink:href="#DejaVuSans-56"/>
    </g>
   </g>
   <g id="text_11">
    <!-- 6 -->
    <defs>
     <path d="M 33.015625 40.375 
Q 26.375 40.375 22.484375 35.828125 
Q 18.609375 31.296875 18.609375 23.390625 
Q 18.609375 15.53125 22.484375 10.953125 
Q 26.375 6.390625 33.015625 6.390625 
Q 39.65625 6.390625 43.53125 10.953125 
Q 47.40625 15.53125 47.40625 23.390625 
Q 47.40625 31.296875 43.53125 35.828125 
Q 39.65625 40.375 33.015625 40.375 
z
M 52.59375 71.296875 
L 52.59375 62.3125 
Q 48.875 64.0625 45.09375 64.984375 
Q 41.3125 65.921875 37.59375 65.921875 
Q 27.828125 65.921875 22.671875 59.328125 
Q 17.53125 52.734375 16.796875 39.40625 
Q 19.671875 43.65625 24.015625 45.921875 
Q 28.375 48.1875 33.59375 48.1875 
Q 44.578125 48.1875 50.953125 41.515625 
Q 57.328125 34.859375 57.328125 23.390625 
Q 57.328125 12.15625 50.6875 5.359375 
Q 44.046875 -1.421875 33.015625 -1.421875 
Q 20.359375 -1.421875 13.671875 8.265625 
Q 6.984375 17.96875 6.984375 36.375 
Q 6.984375 53.65625 15.1875 63.9375 
Q 23.390625 74.21875 37.203125 74.21875 
Q 40.921875 74.21875 44.703125 73.484375 
Q 48.484375 72.75 52.59375 71.296875 
z
" id="DejaVuSans-54"/>
    </defs>
    <g style="fill:#262626;" transform="translate(82.888125 35.279062)scale(0.15 -0.15)">
     <use xlink:href="#DejaVuSans-54"/>
    </g>
   </g>
   <g id="text_12">
    <!-- 2 -->
    <defs>
     <path d="M 19.1875 8.296875 
L 53.609375 8.296875 
L 53.609375 0 
L 7.328125 0 
L 7.328125 8.296875 
Q 12.9375 14.109375 22.625 23.890625 
Q 32.328125 33.6875 34.8125 36.53125 
Q 39.546875 41.84375 41.421875 45.53125 
Q 43.3125 49.21875 43.3125 52.78125 
Q 43.3125 58.59375 39.234375 62.25 
Q 35.15625 65.921875 28.609375 65.921875 
Q 23.96875 65.921875 18.8125 64.3125 
Q 13.671875 62.703125 7.8125 59.421875 
L 7.8125 69.390625 
Q 13.765625 71.78125 18.9375 73 
Q 24.125 74.21875 28.421875 74.21875 
Q 39.75 74.21875 46.484375 68.546875 
Q 53.21875 62.890625 53.21875 53.421875 
Q 53.21875 48.921875 51.53125 44.890625 
Q 49.859375 40.875 45.40625 35.40625 
Q 44.1875 33.984375 37.640625 27.21875 
Q 31.109375 20.453125 19.1875 8.296875 
z
" id="DejaVuSans-50"/>
    </defs>
    <g style="fill:#262626;" transform="translate(110.608125 35.279062)scale(0.15 -0.15)">
     <use xlink:href="#DejaVuSans-50"/>
    </g>
   </g>
   <g id="text_13">
    <!-- 18 -->
    <g style="fill:#262626;" transform="translate(22.67625 62.999062)scale(0.15 -0.15)">
     <use xlink:href="#DejaVuSans-49"/>
     <use x="63.623047" xlink:href="#DejaVuSans-56"/>
    </g>
   </g>
   <g id="text_14">
    <!-- 42 -->
    <defs>
     <path d="M 37.796875 64.3125 
L 12.890625 25.390625 
L 37.796875 25.390625 
z
M 35.203125 72.90625 
L 47.609375 72.90625 
L 47.609375 25.390625 
L 58.015625 25.390625 
L 58.015625 17.1875 
L 47.609375 17.1875 
L 47.609375 0 
L 37.796875 0 
L 37.796875 17.1875 
L 4.890625 17.1875 
L 4.890625 26.703125 
z
" id="DejaVuSans-52"/>
    </defs>
    <g style="fill:#ffffff;" transform="translate(50.39625 62.999062)scale(0.15 -0.15)">
     <use xlink:href="#DejaVuSans-52"/>
     <use x="63.623047" xlink:href="#DejaVuSans-50"/>
    </g>
   </g>
   <g id="text_15">
    <!-- 8 -->
    <g style="fill:#262626;" transform="translate(82.888125 62.999062)scale(0.15 -0.15)">
     <use xlink:href="#DejaVuSans-56"/>
    </g>
   </g>
   <g id="text_16">
    <!-- 4 -->
    <g style="fill:#262626;" transform="translate(110.608125 62.999062)scale(0.15 -0.15)">
     <use xlink:href="#DejaVuSans-52"/>
    </g>
   </g>
   <g id="text_17">
    <!-- 6 -->
    <g style="fill:#262626;" transform="translate(27.448125 90.719063)scale(0.15 -0.15)">
     <use xlink:href="#DejaVuSans-54"/>
    </g>
   </g>
   <g id="text_18">
    <!-- 8 -->
    <g style="fill:#262626;" transform="translate(55.168125 90.719063)scale(0.15 -0.15)">
     <use xlink:href="#DejaVuSans-56"/>
    </g>
   </g>
   <g id="text_19">
    <!-- 8 -->
    <g style="fill:#262626;" transform="translate(82.888125 90.719063)scale(0.15 -0.15)">
     <use xlink:href="#DejaVuSans-56"/>
    </g>
   </g>
   <g id="text_20">
    <!-- 2 -->
    <g style="fill:#262626;" transform="translate(110.608125 90.719063)scale(0.15 -0.15)">
     <use xlink:href="#DejaVuSans-50"/>
    </g>
   </g>
   <g id="text_21">
    <!-- 2 -->
    <g style="fill:#262626;" transform="translate(27.448125 118.439063)scale(0.15 -0.15)">
     <use xlink:href="#DejaVuSans-50"/>
    </g>
   </g>
   <g id="text_22">
    <!-- 4 -->
    <g style="fill:#262626;" transform="translate(55.168125 118.439063)scale(0.15 -0.15)">
     <use xlink:href="#DejaVuSans-52"/>
    </g>
   </g>
   <g id="text_23">
    <!-- 2 -->
    <g style="fill:#262626;" transform="translate(82.888125 118.439063)scale(0.15 -0.15)">
     <use xlink:href="#DejaVuSans-50"/>
    </g>
   </g>
   <g id="text_24">
    <!-- 0 -->
    <defs>
     <path d="M 31.78125 66.40625 
Q 24.171875 66.40625 20.328125 58.90625 
Q 16.5 51.421875 16.5 36.375 
Q 16.5 21.390625 20.328125 13.890625 
Q 24.171875 6.390625 31.78125 6.390625 
Q 39.453125 6.390625 43.28125 13.890625 
Q 47.125 21.390625 47.125 36.375 
Q 47.125 51.421875 43.28125 58.90625 
Q 39.453125 66.40625 31.78125 66.40625 
z
M 31.78125 74.21875 
Q 44.046875 74.21875 50.515625 64.515625 
Q 56.984375 54.828125 56.984375 36.375 
Q 56.984375 17.96875 50.515625 8.265625 
Q 44.046875 -1.421875 31.78125 -1.421875 
Q 19.53125 -1.421875 13.0625 8.265625 
Q 6.59375 17.96875 6.59375 36.375 
Q 6.59375 54.828125 13.0625 64.515625 
Q 19.53125 74.21875 31.78125 74.21875 
z
" id="DejaVuSans-48"/>
    </defs>
    <g style="fill:#262626;" transform="translate(110.608125 118.439063)scale(0.15 -0.15)">
     <use xlink:href="#DejaVuSans-48"/>
    </g>
   </g>
  </g>
 </g>
 <defs>
  <clipPath id="p33dbaf47bf">
   <rect height="110.88" width="110.88" x="18.36" y="17.28"/>
  </clipPath>
 </defs>
</svg>
